<svg width="459" height="334" fill="none" xmlns="http://www.w3.org/2000/svg"><path d="M386.244 129.815h-55.928a69.901 69.901 0 0 0-59.596 33.351 111.632 111.632 0 0 0-81.888.802 69.856 69.856 0 0 0-60.055-34.383H72.446a69.965 69.965 0 0 0-66.451 97.178 69.965 69.965 0 0 0 66.45 42.703h56.044a69.91 69.91 0 0 0 56.151-28.193 69.908 69.908 0 0 0 10.84-61.89 95.06 95.06 0 0 1 67.789-.917 71.195 71.195 0 0 0-3.207 21.088 69.969 69.969 0 0 0 20.575 49.614 69.969 69.969 0 0 0 49.679 20.412h55.987a69.975 69.975 0 0 0 50.766-19.761 69.979 69.979 0 0 0 15.686-77.417 69.985 69.985 0 0 0-15.686-22.94 69.978 69.978 0 0 0-50.766-19.762l-.059.115ZM128.718 252.676H72.446a52.952 52.952 0 0 1-51.208-52.921 52.948 52.948 0 0 1 51.208-52.921h56.043a52.95 52.95 0 0 1 0 105.842h.229Zm257.526 0h-55.928a52.954 52.954 0 0 1-50.491-73.586 52.954 52.954 0 0 1 50.491-32.256h55.987a52.935 52.935 0 0 1 38.56 14.869 52.94 52.94 0 0 1 16.131 38.052 52.947 52.947 0 0 1-16.131 38.052 52.95 52.95 0 0 1-38.56 14.869h-.059Z" fill="#fff"/><path d="M230.147 283.792a68.77 68.77 0 0 0 35.93-9.685 6.595 6.595 0 0 0 3.257-6.893 6.6 6.6 0 0 0-2.919-4.388 6.592 6.592 0 0 0-7.616.336 60.68 60.68 0 0 1-59.311-.401 6.59 6.59 0 0 0-8.358 7.663 6.595 6.595 0 0 0 2.342 3.798 79.207 79.207 0 0 0 36.675 9.57Z" fill="#3E3E3F"/><path d="M388.136 299.436c0 5.731-5.731 4.642-5.731 4.642H70.669s-5.73.86-5.73-4.642v-17.191H36.687v24.641s2.98 26.589 28.652 26.589c24.526-.63 160.455 0 161.2 0h1.259c18.223 0 135.411-.63 159.938 0 25.615 0 28.652-26.589 28.652-26.589v-24.641h-28.252v17.191Zm-249.102-90.713c0-2.471-.734-4.886-2.107-6.94a12.484 12.484 0 0 0-12.823-5.312 12.492 12.492 0 0 0 2.437 24.745 12.554 12.554 0 0 0 12.493-12.493Zm198.616 0a12.494 12.494 0 0 0-7.712-11.541 12.482 12.482 0 0 0-13.612 2.708 12.495 12.495 0 0 0-2.709 13.614 12.494 12.494 0 0 0 11.542 7.712 12.55 12.55 0 0 0 12.491-12.493ZM388.137 65.69c-11.002 0-44.582.287-78.22 0a1.377 1.377 0 0 1-1.382-1.275 1.37 1.37 0 0 1 .123-.673l27.79-61.774a1.373 1.373 0 0 0-1.832-1.834l-73.064 34.498a1.314 1.314 0 0 1-1.662-.459L243.558 9.704a1.317 1.317 0 0 0-1.892-.344l-11.002 7.335c-40.113 26.876-56.558 41.03-63.435 48.824a1.203 1.203 0 0 1-.974.401H65.685c-24.986 0-28.653 25.214-28.653 26.532v23.266a1.324 1.324 0 0 0 .8 1.269c.164.07.34.106.518.106h25.557a1.378 1.378 0 0 0 1.377-1.375v-15.76c0-5.73 5.73-4.64 5.73-4.64h99.825a16.617 16.617 0 0 0 10.257-3.554l52.607-41.488a1.31 1.31 0 0 1 1.564-.06c.155.106.286.244.383.404l13.927 20.858a1.371 1.371 0 0 0 1.718.459l24.298-11.461c.251-.112.527-.146.797-.099a1.382 1.382 0 0 1 1.036 1.875L262.87 94.744a1.316 1.316 0 0 0 .596 1.754c.206.103.437.15.666.137l30.485-1.375h88.134s5.73-.802 5.73 4.641v15.759a1.376 1.376 0 0 0 1.377 1.376h25.558a1.314 1.314 0 0 0 .951-.406 1.325 1.325 0 0 0 .366-.97V92.395c-.171-1.49-3.668-26.704-28.596-26.704Z" fill="#3E3E3F"/></svg>