<svg width="197" height="72" fill="none" xmlns="http://www.w3.org/2000/svg"><path d="M98.68 40.333h2.339c.87 0 1.73.08 2.57.15.84.07 1.64.16 2.38.26.592.08 1.18.19 1.76.33a1.44 1.44 0 0 0 1.29-.15c.364-.245.646-.593.811-1 .176-.366.228-.78.149-1.18a.925.925 0 0 0-.66-.77c-.49-.08-1.09-.16-1.8-.21-.71-.05-1.47-.11-2.25-.13-.78-.02-1.569 0-2.339 0h-2c.6-.67 1.219-1.32 1.849-1.95.63-.63 1.27-1.21 1.93-1.77a1.484 1.484 0 0 0 .6-1.42 3.116 3.116 0 0 0-2-2.38 1.259 1.259 0 0 0-1.33.26c-.917.9-1.776 1.86-2.57 2.87-1 1.23-2.07 2.7-3.22 4.39-1.6.08-3.17.2-4.71.34a26.5 26.5 0 0 0-4.5.83 1.2 1.2 0 0 0-1 .81 1.8 1.8 0 0 0 .84 2 1.1 1.1 0 0 0 1.11 0c1.017-.336 2.056-.6 3.11-.79 1.13-.2 2.22-.35 3.28-.43a153.673 153.673 0 0 0-3.39 5.72 95.278 95.278 0 0 0-3.26 6.31 115.141 115.141 0 0 0-2.85 6.6 54.329 54.329 0 0 0-2.12 6.57 1.44 1.44 0 0 0 .37 1.57c.408.35.915.564 1.45.61a3.07 3.07 0 0 0 1.61-.26 1.3 1.3 0 0 0 .86-1.05c.06-.49.2-1.25.43-2.27.23-1.02.56-2.21 1-3.58.44-1.37 1-2.87 1.6-4.52.6-1.65 1.38-3.36 2.23-5.13.85-1.77 1.83-3.58 2.9-5.4a54.25 54.25 0 0 1 3.53-5.23Z" fill="#FFDA00"/><path d="M133.68 32.863a1.549 1.549 0 0 0 .25-1.92 2.883 2.883 0 0 0-1.58-1.27 1.312 1.312 0 0 0-1.591.26c-.43.59-1 1.39-1.67 2.41-.67 1.02-1.519 2.27-2.489 3.75l-3.091 4.68c-1.06 1.6-2.179 3.27-3.389 5s-2.281 3.35-3.341 4.8c-1.06 1.45-2.09 2.8-3.09 4-1.906 2.454-3.263 3.707-4.069 3.76-1.334 0-.261-3.173 3.219-9.52a1.674 1.674 0 0 0 .08-1.71 1.816 1.816 0 0 0-1.16-.91 1.997 1.997 0 0 0-1.63.43c-.315.27-.609.565-.88.88-.3.35-.65.74-1.05 1.18-.57.67-1 1.19-1.41 1.57-1.49-2.16-3.4-2.61-5.75-1.36a18.336 18.336 0 0 0-5.27 4.72 14.73 14.73 0 0 0-2.83 5.59c-.4 1.78.08 2.93 1.46 3.45a4.44 4.44 0 0 0 3.34-.48 15.65 15.65 0 0 0 3.43-2.57c.57-.56 1.12-1.1 1.65-1.64.53-.54 1.051-1.1 1.571-1.68.52-.58.789-.9 1.179-1.29l1.091-1.12a13.865 13.865 0 0 0-1.461 5.64 3.138 3.138 0 0 0 1.29 2.75c1.29.67 2.74.36 4.37-.92a27.56 27.56 0 0 0 4.63-5.11c.75-1 1.43-2 2.06-3 .63-1 1.2-1.82 1.72-2.66l.641-1c.2-.29.37-.56.52-.79-1.607 3.234-2.994 6.344-4.161 9.33a111.982 111.982 0 0 0-3 8.67 1.59 1.59 0 0 0 .26 1.57c.351.365.826.582 1.33.61a3.889 3.889 0 0 0 1.54-.22 1.158 1.158 0 0 0 .86-.78c.185-1.38.46-2.745.82-4.09.4-1.56.911-3.32 1.541-5.3a87.7 87.7 0 0 1 5.359-12.85 66.476 66.476 0 0 1 8.701-12.86Zm-28.781 19a11.831 11.831 0 0 1-1.37 1.7c-.34.38-.71.76-1.09 1.14l-1.23 1.18c-.42.41-.82.77-1.2 1.09-.338.3-.695.577-1.07.83-1.06.73-1.71 1.05-2 1-.29-.05-.26-.33 0-.91a8.325 8.325 0 0 1 1-1.75c.23-.32.43-.61.62-.85s.37-.48.54-.68a11.742 11.742 0 0 1 3.3-2.84 3.49 3.49 0 0 1 2-.52c.5.07.65.29.5.61Zm67.711-11.53h2.339c.88 0 1.731.08 2.571.15.84.07 1.63.16 2.38.26s1.33.22 1.76.33a1.43 1.43 0 0 0 1.28-.15c.366-.245.651-.593.819-1 .169-.369.222-.78.151-1.18a.943.943 0 0 0-.671-.77c-.48-.08-1.079-.16-1.799-.21-.72-.05-1.46-.11-2.25-.13-.79-.02-1.56 0-2.34 0h-2c.6-.67 1.21-1.32 1.84-1.95.63-.63 1.27-1.21 1.93-1.77a1.451 1.451 0 0 0 .599-1.42 2.886 2.886 0 0 0-.679-1.46 3.086 3.086 0 0 0-1.33-.92 1.26 1.26 0 0 0-1.33.26 28.417 28.417 0 0 0-2.57 2.87c-1 1.23-2.08 2.7-3.22 4.39-1.6.08-3.17.2-4.72.34a26.865 26.865 0 0 0-4.5.83 1.198 1.198 0 0 0-1 .81c-.105.378-.077.78.079 1.14.154.356.416.654.75.85a1.124 1.124 0 0 0 1.121 0 22.377 22.377 0 0 1 3.11-.79 32.79 32.79 0 0 1 3.28-.43 124.01 124.01 0 0 0-3.39 5.72 106.522 106.522 0 0 0-3.2 6.19c-2.05 1.66-3.671 2.91-4.861 3.72a13.7 13.7 0 0 1-2.659 1.56c-.55.18-.82.1-.82-.27a4.781 4.781 0 0 1 .41-1.57c.27-.68.619-1.47 1.049-2.36.43-.89.801-1.77 1.121-2.64.29-.771.475-1.579.55-2.4a1.702 1.702 0 0 0-.081-.891 1.704 1.704 0 0 0-.519-.729 2.22 2.22 0 0 0-2.14-.37 7.992 7.992 0 0 0-2.53 1.44 21.525 21.525 0 0 0-2.68 2.6c-.9 1-1.77 2.05-2.59 3.08-.82 1.03-1.59 2-2.28 2.93-.69.93-1.24 1.62-1.67 2.11.11-.29.33-.74.64-1.35.31-.61.67-1.27 1.05-2s.78-1.36 1.18-2a8.056 8.056 0 0 1 1.08-1.45.938.938 0 0 0 .17-1 2.775 2.775 0 0 0-.75-1.12 2.561 2.561 0 0 0-1.23-.61 1.309 1.309 0 0 0-1.24.44 10.828 10.828 0 0 0-1.18 1.7 33.716 33.716 0 0 0-1.171 2.22l-.609.51c-.71.6-1.49 1.19-2.33 1.77-.84.58-1.71 1.14-2.6 1.66-.817.491-1.662.935-2.53 1.33-.685.326-1.402.577-2.141.75a1.737 1.737 0 0 1-1.419-.16.77.77 0 0 1-.38-.56 3.15 3.15 0 0 1-.07-.81c.018-.268.068-.533.15-.79.068-.204.154-.402.26-.59a4 4 0 0 0 2-.2 8.681 8.681 0 0 0 2.14-1.09 12.095 12.095 0 0 0 2-1.7 12.581 12.581 0 0 0 1.569-2 5.774 5.774 0 0 0 .901-3 2.375 2.375 0 0 0-.95-1.9 3.09 3.09 0 0 0-2.29-.41 7.298 7.298 0 0 0-3.11 1.37c-.885.661-1.709 1.4-2.46 2.21a18.712 18.712 0 0 0-2.19 2.77 20.623 20.623 0 0 0-1.63 3 10.169 10.169 0 0 0-.811 2.88 4.579 4.579 0 0 0 .321 2.42 3.199 3.199 0 0 0 1.71 1.64c.778.358 1.643.48 2.489.35a11.34 11.34 0 0 0 2.851-.79 20.662 20.662 0 0 0 3-1.55c1-.62 2-1.29 3-2 .53-.4 1-.79 1.52-1.19a21.683 21.683 0 0 0-.621 2.21 7.338 7.338 0 0 0-.169 2.25 1.433 1.433 0 0 0 .75 1.25 2.239 2.239 0 0 0 2.189-.35 10.463 10.463 0 0 0 2.321-2.19c.77-1 1.55-2 2.33-3.1s1.56-2.1 2.32-3.08a32.057 32.057 0 0 1 2.23-2.6 9.485 9.485 0 0 1 2-1.66c-.34.7-.78 1.59-1.3 2.67a23.66 23.66 0 0 0-1.33 3.25 9.345 9.345 0 0 0-.52 3 2.069 2.069 0 0 0 1.1 1.94c.607.29 1.293.368 1.95.22a9.011 9.011 0 0 0 2.31-.85 21.6 21.6 0 0 0 2.47-1.53c.83-.6 1.61-1.2 2.34-1.79l.469-.4c-.35.84-.7 1.69-1 2.54a56.277 56.277 0 0 0-2.129 6.57 1.453 1.453 0 0 0 .37 1.57c.41.353.921.566 1.46.61a3.07 3.07 0 0 0 1.609-.26 1.29 1.29 0 0 0 .851-1.05c.06-.49.2-1.25.43-2.27.23-1.02.57-2.21 1-3.58.43-1.37 1-2.87 1.61-4.52.61-1.65 1.37-3.36 2.23-5.13.86-1.77 1.82-3.58 2.89-5.4a52.444 52.444 0 0 1 3.59-5.24Zm-41.94 12.91a26.064 26.064 0 0 1 1.72-2 8.959 8.959 0 0 1 1-1c.233-.2.492-.368.77-.5.18-.07.29 0 .32.11-.02.315-.123.619-.3.88a8.31 8.31 0 0 1-2.32 3 4.8 4.8 0 0 1-2.23 1.09c.296-.558.644-1.087 1.04-1.58Z" fill="#FFDA00"/><path d="M196.44 52.324a1.308 1.308 0 0 0-.451-.66.738.738 0 0 0-.79 0l-1 .51c-.5.24-1.089.54-1.759.89l-2.14 1.09c-.76.38-1.48.75-2.15 1.12l-1.8 1a9.563 9.563 0 0 0-1.09.63 4.542 4.542 0 0 1-.13-3.19 8.426 8.426 0 0 1 1.67-3 11.535 11.535 0 0 1 2.7-2.31 9.405 9.405 0 0 1 3-1.27 1.164 1.164 0 0 0 .949-.9 2.783 2.783 0 0 0-.049-1.46 2.485 2.485 0 0 0-.79-1.24 1.222 1.222 0 0 0-1.31-.24 16.92 16.92 0 0 0-4.2 2.44 15.059 15.059 0 0 0-3.35 3.61 11.447 11.447 0 0 0-1.31 2.7l-.63.1a7.397 7.397 0 0 1-1.41 0 5.471 5.471 0 0 1-1.35-.26 9.396 9.396 0 0 0-.73-4.26 4.72 4.72 0 0 0-1.871-2.14 3.199 3.199 0 0 0-2.23-.35 3.25 3.25 0 0 0-2.649 3.21 4.457 4.457 0 0 0 1.05 2.84 2.711 2.711 0 0 0-1.381-.9 1.288 1.288 0 0 0-1.279.29 11.963 11.963 0 0 0-1.91 2.49 9.563 9.563 0 0 0-1.18 3.58 4.75 4.75 0 0 0 .13 2.12c.187.593.478 1.148.86 1.64.363.456.816.833 1.33 1.11.472.267.998.424 1.54.46a5.33 5.33 0 0 0 3.19-.7 8.517 8.517 0 0 0 2.38-2.08 11.774 11.774 0 0 0 1.59-2.59 9.18 9.18 0 0 0 .73-2.28c.879.195 1.78.269 2.68.22h.66a8.446 8.446 0 0 0 .82 3.94c-.89.61-1.72 1.24-2.51 1.88-.79.64-1.51 1.28-2.17 1.92a10.615 10.615 0 0 0-2.42 3.45 5.41 5.41 0 0 0-.41 2.82 2.996 2.996 0 0 0 1.14 1.9 3.49 3.49 0 0 0 2.27.65 6.882 6.882 0 0 0 3-.91 11.376 11.376 0 0 0 3.26-2.84 7.583 7.583 0 0 0 1.799-4.33 8.067 8.067 0 0 0-.059-2 14.582 14.582 0 0 0-.37-1.73 22.704 22.704 0 0 1 2.28-1.42c.91-.51 1.85-1 2.81-1.53s1.85-1 2.68-1.4c.83-.4 1.45-.76 1.88-1a1.22 1.22 0 0 0 .56-.74 1.54 1.54 0 0 0-.08-.88Zm-21.55 2.86a11.24 11.24 0 0 1-1.05 1.73 8.539 8.539 0 0 1-1.31 1.42 2.41 2.41 0 0 1-1.35.65.713.713 0 0 1-.85-.59 3.12 3.12 0 0 1 .15-1.55 8.34 8.34 0 0 1 .88-1.94 7.05 7.05 0 0 1 1.37-1.73 1.21 1.21 0 0 0 .43-.61.883.883 0 0 0-.09-.52c.317.366.696.674 1.12.91.4.255.829.46 1.279.61a6.167 6.167 0 0 1-.569 1.62h-.01Zm1-4.32a2.57 2.57 0 0 1-.86-.7 3.13 3.13 0 0 1-.51-.9 1.862 1.862 0 0 1-.15-.83.593.593 0 0 1 .23-.5.458.458 0 0 1 .58.07c.208.186.362.424.45.69.113.324.194.659.24 1 .038.389.038.78 0 1.17h.02Zm7.48 11.66a5.664 5.664 0 0 1-.56 1.46 9.293 9.293 0 0 1-1.05 1.55 9.072 9.072 0 0 1-1.46 1.44c-1 .85-1.66 1.1-2 .77-.34-.33-.05-1.16.84-2.47a11.788 11.788 0 0 1 2.079-2.27c.84-.73 1.551-1.3 2.121-1.7.109.398.113.819.01 1.22h.02Z" fill="#FFDA00"/><path d="M89.81 11.174h-4.93a.4.4 0 0 0-.4.4v13.88a.4.4 0 0 0 .4.4h1.93a.41.41 0 0 0 .4-.4v-4.93h2.62a4.676 4.676 0 0 0 4.519-2.835 4.68 4.68 0 0 0-4.52-6.515h-.02Zm-.17 6.79h-2.43v-4.21h2.43a2.099 2.099 0 0 1 2.17 2 2.16 2.16 0 0 1-2.17 2.21Zm16.199-6.791h-8.54a.4.4 0 0 0-.4.4v13.88a.4.4 0 0 0 .4.4h8.54a.4.4 0 0 0 .4-.4v-1.72a.4.4 0 0 0-.4-.4h-6.21v-3.67h5.181a.398.398 0 0 0 .399-.4v-1.74a.407.407 0 0 0-.399-.4h-5.18v-3.44h6.209a.394.394 0 0 0 .37-.238c.02-.048.03-.1.03-.152v-1.72a.4.4 0 0 0-.4-.4Zm17.43 7.36a7.538 7.538 0 0 0-12.864-5.348 7.54 7.54 0 0 0 5.314 12.878c.314-.002.629-.022.941-.06l2.239 3.79a.483.483 0 0 0 .34.21h2.2a.39.39 0 0 0 .34-.63l-2.619-4.13a7.729 7.729 0 0 0 4.109-6.71Zm-7.55 4.8a4.83 4.83 0 0 1 0-9.65 4.831 4.831 0 0 1 0 9.65Zm21.39-12.16h-2a.398.398 0 0 0-.4.4v8.6a3.05 3.05 0 1 1-6.1 0v-8.57a.4.4 0 0 0-.4-.4h-2a.412.412 0 0 0-.399.4v8.72a5.84 5.84 0 1 0 11.679 0v-8.72a.408.408 0 0 0-.38-.43Zm12.94 0h-8.529a.399.399 0 0 0-.4.4v13.88a.4.4 0 0 0 .4.4h8.529a.399.399 0 0 0 .4-.4v-1.72a.399.399 0 0 0-.4-.4h-6.199v-3.67h5.179a.393.393 0 0 0 .364-.247.377.377 0 0 0 .026-.153v-1.74a.41.41 0 0 0-.39-.4h-5.179v-3.44h6.199a.394.394 0 0 0 .37-.238c.02-.048.03-.1.03-.152v-1.72a.399.399 0 0 0-.4-.4Zm15.39 0h-1.93a.398.398 0 0 0-.4.4v8.66l-8.73-9.27h-.52a.402.402 0 0 0-.4.38v14.11a.41.41 0 0 0 .4.4h1.911a.398.398 0 0 0 .399-.4v-9l8.77 9.63h.5a.399.399 0 0 0 .4-.38v-14.13a.408.408 0 0 0-.4-.4Zm10.71-.21a7.548 7.548 0 0 0-5.345 12.882 7.55 7.55 0 0 0 12.895-5.312 7.51 7.51 0 0 0-2.195-5.36 7.519 7.519 0 0 0-5.355-2.21Zm0 12.37a4.83 4.83 0 0 1 0-9.65 4.832 4.832 0 0 1 3.273 8.162 4.831 4.831 0 0 1-3.273 1.488Zm14.6-6.16c-1.7-.7-2.48-1.37-2.48-2.35a1.681 1.681 0 0 1 .621-1.118 1.662 1.662 0 0 1 1.23-.352 6.998 6.998 0 0 1 2.909 1.15.56.56 0 0 0 .74-.25l.79-1.19a.527.527 0 0 0-.12-.7 7.447 7.447 0 0 0-4.2-1.4c-3.33 0-4.72 2.16-4.72 4 0 2.47 2 3.73 3.95 4.53 1.76.71 2.66 1.44 2.66 2.51a1.77 1.77 0 0 1-1.222 1.544 1.743 1.743 0 0 1-.688.076 7.003 7.003 0 0 1-3.17-1.3.482.482 0 0 0-.71.14l-.75 1.3c-.19.34-.09.44.1.63a6.742 6.742 0 0 0 4.62 1.64c2.95 0 4.82-2 4.82-4.15 0-2.68-2.35-3.9-4.38-4.71Z" fill="#fff"/><path d="M67.28 22.653H57.5a12.211 12.211 0 0 0-10.4 5.82 19.451 19.451 0 0 0-14.28.14 12.21 12.21 0 0 0-10.49-6h-9.77A12.211 12.211 0 0 0 3.7 43.575a12.21 12.21 0 0 0 8.86 3.448h9.77a12.22 12.22 0 0 0 12.21-12.2 12.002 12.002 0 0 0-.52-3.52 16.62 16.62 0 0 1 11.84-.16 12.2 12.2 0 0 0 11.64 15.9h9.78a12.211 12.211 0 1 0 0-24.41v.02Zm-44.95 21.44h-9.77a9.243 9.243 0 0 1-8.812-5.629 9.24 9.24 0 0 1 8.812-12.84h9.77a9.237 9.237 0 0 1 8.81 5.628 9.239 9.239 0 0 1-8.81 12.841Zm44.95 0H57.5a9.24 9.24 0 0 1 0-18.47h9.78a9.24 9.24 0 0 1 0 18.47Z" fill="#FFDA00"/><path d="M40.04 49.523a12 12 0 0 0 6.27-1.69 1.15 1.15 0 1 0-1.28-1.91 10.56 10.56 0 0 1-10.34-.07 1.15 1.15 0 1 0-1.05 2 13.82 13.82 0 0 0 6.4 1.67Z" fill="#fff"/><path d="M67.6 52.253c0 1-1 .81-1 .81H12.2s-1 .15-1-.81v-3H6.27v4.3s.52 4.64 5 4.64c4.28-.11 28 0 28.13 0h.21c3.18 0 23.64-.11 27.92 0 4.46 0 5-4.64 5-4.64v-4.3h-4.94l.01 3Zm-43.47-15.83a2.18 2.18 0 1 0-4.36 0 2.18 2.18 0 0 0 4.36 0Zm34.66 0a2.18 2.18 0 1 0-4.36 0 2.18 2.18 0 0 0 4.36 0Zm8.82-24.96c-1.93 0-7.78.05-13.66 0a.24.24 0 0 1-.21-.34L58.58.343a.24.24 0 0 0-.32-.32l-12.72 6a.25.25 0 0 1-.3-.08l-2.84-4.27a.23.23 0 0 0-.33-.06l-1.93 1.28c-7 4.69-9.87 7.16-11.06 8.52a.23.23 0 0 1-.17.07H11.35c-4.35 0-5 4.4-5 4.63v4.06a.24.24 0 0 0 .24.24h4.46a.228.228 0 0 0 .166-.07.23.23 0 0 0 .063-.17v-2.75c0-1 1-.81 1-.81H29.7a2.85 2.85 0 0 0 1.78-.62l9.18-7.24a.249.249 0 0 1 .35.06l2.42 3.64a.25.25 0 0 0 .3.08l4.25-2a.24.24 0 0 1 .333.17.24.24 0 0 1-.013.14l-2.55 5.67a.24.24 0 0 0 .23.33l5.32-.24h15.38s1-.14 1 .81v2.75a.23.23 0 0 0 .23.24h4.46a.24.24 0 0 0 .24-.24v-4.06c-.04-.24-.65-4.64-5-4.64Z" fill="#fff"/></svg>