<svg width="80" height="59" fill="none" xmlns="http://www.w3.org/2000/svg"><path d="M67.32 22.654h-9.76a12.2 12.2 0 0 0-10.4 5.82 19.48 19.48 0 0 0-14.29.14 12.19 12.19 0 0 0-10.48-6h-9.83a12.21 12.21 0 1 0 0 24.41h9.78a12.2 12.2 0 0 0 11.69-15.72 16.59 16.59 0 0 1 11.83-.16 12.417 12.417 0 0 0-.56 3.68 12.21 12.21 0 0 0 12.26 12.22h9.77a12.21 12.21 0 1 0 0-24.41l-.01.02Zm-44.94 21.44h-9.82a9.24 9.24 0 0 1 0-18.47h9.78a9.24 9.24 0 0 1 0 18.47h.04Zm44.94 0h-9.76a9.24 9.24 0 1 1 0-18.47h9.77a9.24 9.24 0 1 1 0 18.47h-.01Z" fill="#FFDA00"/><path d="M40.08 49.523a12 12 0 0 0 6.27-1.69 1.151 1.151 0 0 0-.38-2.137 1.147 1.147 0 0 0-.89.227 10.59 10.59 0 0 1-10.35-.07 1.15 1.15 0 0 0-1.05 2 13.82 13.82 0 0 0 6.4 1.67Z" fill="#fff"/><path d="M67.65 52.254c0 1-1 .81-1 .81h-54.4s-1 .15-1-.81v-3H6.32v4.3s.52 4.64 5 4.64c4.28-.11 28 0 28.13 0h.22c3.18 0 23.63-.11 27.91 0 4.47 0 5-4.64 5-4.64v-4.3h-4.93v3ZM24.18 36.423a2.18 2.18 0 1 0-2.18 2.18 2.19 2.19 0 0 0 2.18-2.18Zm34.66 0a2.18 2.18 0 1 0-2.18 2.18 2.19 2.19 0 0 0 2.18-2.18Zm8.81-24.96c-1.92 0-7.78.05-13.65 0a.24.24 0 0 1-.22-.34L58.63.343a.24.24 0 0 0-.32-.32l-12.75 6.02a.23.23 0 0 1-.29-.08l-2.85-4.27a.228.228 0 0 0-.245-.099.23.23 0 0 0-.085.04l-1.92 1.28c-7 4.69-9.87 7.16-11.07 8.52a.21.21 0 0 1-.17.07H11.38c-4.36 0-5 4.4-5 4.63v4.06a.23.23 0 0 0 .23.24h4.46a.24.24 0 0 0 .24-.24v-2.75c0-1 1-.81 1-.81h17.42a2.9 2.9 0 0 0 1.79-.62l9.18-7.24a.229.229 0 0 1 .34.06l2.43 3.64a.24.24 0 0 0 .3.08l4.24-2a.239.239 0 0 1 .333.17.24.24 0 0 1-.013.14l-2.54 5.67a.23.23 0 0 0 .22.33l5.32-.24h15.38s1-.14 1 .81v2.75a.24.24 0 0 0 .24.24h4.46a.228.228 0 0 0 .215-.15.23.23 0 0 0 .015-.09v-4.06c-.03-.26-.64-4.66-4.99-4.66Z" fill="#fff"/></svg>