<svg width="197" height="197" fill="none" xmlns="http://www.w3.org/2000/svg"><circle cx="98.5" cy="98.5" r="98.5" fill="#FFDA00"/><path d="M149.944 86.111h-18.162a22.677 22.677 0 0 0-19.314 10.808 36.122 36.122 0 0 0-26.52.26 22.675 22.675 0 0 0-19.48-11.142H48.324a22.675 22.675 0 1 0 0 45.331h18.144a22.694 22.694 0 0 0 22.675-22.656 22.282 22.282 0 0 0-.966-6.537 30.861 30.861 0 0 1 21.988-.297 22.647 22.647 0 0 0 3.308 20.254 22.658 22.658 0 0 0 18.309 9.273h18.162a22.666 22.666 0 0 0 16.451-6.404 22.676 22.676 0 0 0-16.451-38.927v.037Zm-83.476 39.816H48.324a17.153 17.153 0 0 1-12.497-4.819 17.16 17.16 0 0 1 12.497-29.482h18.144a17.156 17.156 0 0 1 16.363 10.454 17.158 17.158 0 0 1-16.363 23.847Zm83.476 0h-18.162a17.16 17.16 0 0 1 0-34.3h18.162a17.162 17.162 0 0 1 16.595 17.15 17.157 17.157 0 0 1-16.595 17.15Z" fill="#fff"/><path d="M99.786 135.969a22.287 22.287 0 0 0 11.644-3.138 2.133 2.133 0 0 0 .954-2.21 2.129 2.129 0 0 0-.924-1.379 2.137 2.137 0 0 0-2.408.042 19.612 19.612 0 0 1-19.202-.13 2.141 2.141 0 0 0-1.77-.42 2.144 2.144 0 0 0-1.695 1.997 2.136 2.136 0 0 0 1.516 2.137 25.652 25.652 0 0 0 11.885 3.101Z" fill="#3E3E3F"/><path d="M150.967 141.039c0 1.857-1.857 1.505-1.857 1.505H48.084s-1.857.278-1.857-1.505v-5.571h-9.155v7.986s.966 8.616 9.285 8.616c7.949-.204 51.999 0 52.24 0h.39c5.906 0 43.902-.204 51.85 0 8.282 0 9.285-8.616 9.285-8.616v-7.986h-9.174l.019 5.571ZM70.24 111.642a4.052 4.052 0 0 0-2.504-3.742 4.046 4.046 0 0 0-5.518 2.963 4.05 4.05 0 0 0 3.992 4.827 4.05 4.05 0 0 0 4.03-4.048Zm64.367 0a4.05 4.05 0 0 0-6.918-2.856 4.053 4.053 0 0 0 .634 6.231 4.05 4.05 0 0 0 6.284-3.375Zm16.379-46.353c-3.585 0-14.449.093-25.369 0a.443.443 0 0 1-.429-.418.447.447 0 0 1 .039-.214l8.989-20.02a.444.444 0 0 0-.327-.631.444.444 0 0 0-.267.038L110 55.186a.466.466 0 0 1-.558-.148l-5.274-7.93a.423.423 0 0 0-.455-.184.43.43 0 0 0-.158.072l-3.583 2.377c-13 8.71-18.33 13.297-20.54 15.823a.428.428 0 0 1-.315.13h-32.61c-8.08 0-9.286 8.171-9.286 8.598v7.54a.445.445 0 0 0 .445.445h8.283a.425.425 0 0 0 .427-.445v-5.107c0-1.857 1.857-1.504 1.857-1.504h32.35a5.294 5.294 0 0 0 3.306-1.152l17.049-13.445a.459.459 0 0 1 .517-.014.46.46 0 0 1 .132.125l4.495 6.76a.461.461 0 0 0 .556.149l7.893-3.714a.445.445 0 0 1 .594.575l-4.735 10.53a.447.447 0 0 0 .213.566.44.44 0 0 0 .214.047l9.879-.446h28.563s1.857-.26 1.857 1.504v5.107a.442.442 0 0 0 .026.17.439.439 0 0 0 .233.242.431.431 0 0 0 .168.034h8.283a.445.445 0 0 0 .445-.446v-7.54c-.074-.445-1.207-8.616-9.285-8.616Z" fill="#3E3E3F"/></svg>